<svg width="152" height="57" viewBox="0 0 152 57" fill="none" xmlns="http://www.w3.org/2000/svg">
<path d="M26.7188 1.11386C28.2244 1.38043 30.3548 1.51374 33.1102 1.51374C35.8657 1.51374 37.9062 1.38043 39.2318 1.11386V0.971084C39.2318 0.666444 39.336 0.428432 39.5443 0.257049C39.762 0.0856653 40.013 0 40.297 0C40.5906 0 40.8178 0.0904512 40.9788 0.271353C41.1397 0.442683 41.2439 0.637836 41.2913 0.856811C41.3765 1.35187 41.5185 1.885 41.7174 2.45621L41.9588 3.156C42.0535 3.40353 42.1624 3.67009 42.2855 3.9557C42.4086 4.23178 42.4701 4.53164 42.4701 4.85537C42.4701 5.17904 42.3707 5.43131 42.1719 5.61221C41.9825 5.79311 41.7458 5.88356 41.4617 5.88356C40.9314 5.88356 40.548 5.56462 40.3113 4.92673C40.084 4.27937 39.8094 3.85573 39.4874 3.65579C39.175 3.44633 38.6306 3.34163 37.8541 3.34163H37.5132L34.2749 3.57012V21.0636H36.0361C36.6894 21.0636 37.1439 21.1826 37.3996 21.4206C37.6647 21.6491 37.7973 21.9157 37.7973 22.2203C37.7973 22.525 37.6837 22.7915 37.4564 23.02C37.2291 23.2485 36.841 23.3628 36.2918 23.3628H35.9793C35.8467 23.3628 35.7094 23.3628 35.5674 23.3628C35.4254 23.3532 35.2833 23.3485 35.1413 23.3485C34.9992 23.339 34.772 23.3247 34.4595 23.3056C34.1471 23.2866 33.6594 23.2771 32.9966 23.2771C32.3432 23.2771 31.8225 23.2866 31.4343 23.3056C31.0555 23.3247 30.7998 23.3342 30.6673 23.3342L30.2412 23.3628C30.0992 23.3628 29.9666 23.3628 29.8435 23.3628H29.5168C29.0907 23.3628 28.7499 23.2628 28.4942 23.0629C28.248 22.8534 28.1249 22.5774 28.1249 22.2346C28.1249 21.8919 28.2717 21.6111 28.5652 21.3921C28.8587 21.1731 29.2469 21.0636 29.7299 21.0636H31.6331V3.54157L30.0708 3.4273C29.7772 3.40826 29.5358 3.39401 29.3464 3.38444C29.157 3.3654 28.996 3.35588 28.8635 3.35588C28.7309 3.34636 28.6078 3.34163 28.4942 3.34163C28.3806 3.33211 28.0918 3.32733 27.6278 3.32733C27.1638 3.32733 26.7709 3.43208 26.4489 3.64148C26.1365 3.84142 25.8903 4.18892 25.7104 4.68398C25.5305 5.16953 25.3506 5.4932 25.1706 5.65507C24.9908 5.80736 24.7635 5.88356 24.4889 5.88356C24.2049 5.88356 23.9681 5.79311 23.7787 5.61221C23.5799 5.43131 23.4805 5.17904 23.4805 4.85537C23.4805 4.53164 23.542 4.23178 23.6651 3.9557C23.7882 3.67009 23.8971 3.39874 23.9918 3.14169L24.2333 2.45621C24.3563 2.08494 24.4463 1.78504 24.5031 1.55654L24.6593 0.885366C24.773 0.295122 25.0807 0 25.5825 0C26.0844 0 26.43 0.180902 26.6194 0.542652C26.6857 0.666444 26.7188 0.809219 26.7188 0.971084V1.11386ZM59.4813 10.5633C59.4813 8.31175 58.4071 6.89511 56.2583 6.31348C55.2424 6.04761 53.697 5.91467 51.6227 5.91467C50.9119 5.91467 50.4079 5.92302 50.1104 5.93961V15.0999H52.5398C56.2007 15.0999 58.3944 14.2399 59.1217 12.52C59.3618 11.955 59.4813 11.3028 59.4813 10.5633ZM51.2135 23.3628L48.9204 23.288C48.6147 23.288 48.375 23.2921 48.2014 23.3005L47.6561 23.3254C47.342 23.3503 47.0074 23.3628 46.652 23.3628C46.305 23.3628 46.024 23.2755 45.8091 23.1011C45.5942 22.9183 45.4868 22.6773 45.4868 22.3782C45.4868 22.0791 45.6108 21.834 45.8587 21.6429C46.1149 21.4518 46.4537 21.3562 46.8751 21.3562H47.8668V6.13901C47.247 6.26366 46.7594 6.32598 46.4041 6.32598C46.057 6.32598 45.7554 6.23457 45.4992 6.05181C45.2431 5.8607 45.115 5.64879 45.115 5.41615C45.115 4.6767 45.5406 4.25295 46.3917 4.14495C47.2511 4.03695 48.5113 3.98292 50.1723 3.98292C51.8417 3.98292 53.0565 4.00371 53.8165 4.04524C57.9814 4.24465 60.5311 5.62805 61.4646 8.1954C61.7041 8.86839 61.8242 9.61204 61.8242 10.4263C61.8242 12.0547 61.3366 13.4215 60.3613 14.5266C59.3946 15.6316 58.0147 16.3586 56.2213 16.7076C57.0231 18.0369 57.6842 18.9634 58.2046 19.4868C59.1798 20.4672 60.1302 21.053 61.0557 21.2441C61.9813 21.4352 62.5144 21.7301 62.6545 22.1289C62.6958 22.2619 62.7164 22.4364 62.7164 22.6524C62.7164 22.8684 62.609 23.072 62.3943 23.2631C62.1796 23.4542 61.8739 23.5497 61.4773 23.5497C60.6009 23.5497 59.8282 23.3503 59.1592 22.9515C57.9608 22.237 56.994 21.4477 56.2583 20.5836C55.5232 19.7195 54.7754 18.5064 54.0148 16.9444H50.1104V21.3562H50.978C51.5565 21.3562 51.9612 21.4601 52.1929 21.6678C52.424 21.8672 52.5398 22.0708 52.5398 22.2785C52.5398 23.0014 52.0977 23.3628 51.2135 23.3628ZM70.8648 15.7479C72.691 17.1604 73.7117 17.9746 73.9264 18.1907L74.3728 18.6518C74.6288 18.8927 74.844 19.0132 75.0175 19.0132C75.191 19.0132 75.3438 18.9717 75.476 18.8886C75.6083 18.7972 75.7653 18.656 75.9473 18.4648C76.1371 18.2654 76.3476 18.0702 76.5793 17.8791L79.3432 15.7355L75.9594 8.39481C75.7363 7.90459 75.5585 7.53486 75.4263 7.28563C75.3026 7.03634 75.1867 6.9117 75.0794 6.9117C74.98 6.9117 74.8768 7.00311 74.7695 7.18593C74.6706 7.36039 74.5383 7.63456 74.3728 8.00844L70.8648 15.7479ZM66.601 23.2631L64.7663 23.3628C64.1216 23.3628 63.7995 23.1011 63.7995 22.5776C63.7995 22.237 64.0682 21.8589 64.605 21.4435C65.5639 20.6791 66.4561 19.491 67.2827 17.8791L71.5962 9.15505L73.1331 5.87729C73.497 5.07136 73.8069 4.51467 74.0629 4.20727C74.3273 3.89157 74.6621 3.73369 75.0672 3.73369C75.4718 3.73369 75.8108 3.87078 76.0832 4.14495C76.3645 4.41912 76.6988 4.97581 77.0875 5.81496L79.8022 11.6476C82.124 16.2838 83.3595 18.739 83.5081 19.0132L83.9671 19.8483C84.3305 20.488 84.5827 20.8744 84.7229 21.0073C84.8636 21.1402 85.008 21.2524 85.1571 21.3438C85.8097 21.7343 86.136 22.0833 86.136 22.3907C86.136 23.0388 85.814 23.3628 85.1693 23.3628L83.2976 23.2755L80.7812 23.3628C80.3597 23.3628 80.0291 23.2797 79.7896 23.1135C79.55 22.9473 79.4304 22.6981 79.4304 22.3657C79.4304 21.6844 80.182 21.3438 81.6861 21.3438C81.7771 21.3438 81.868 21.3438 81.959 21.3438C82.05 21.3438 82.1409 21.3397 82.2314 21.3313C82.0087 21.0073 81.7771 20.596 81.5375 20.0975L80.2729 17.5052L77.9427 19.3248C77.1827 19.9147 76.6163 20.4381 76.2445 20.8951C75.8727 21.3438 75.5337 21.5681 75.228 21.5681C74.9223 21.5681 74.6785 21.4933 74.4966 21.3438C74.3231 21.1942 74.166 21.0363 74.0259 20.8702L73.5049 20.2719C73.3563 20.0975 73.158 19.9106 72.9099 19.7112L71.0012 18.2779C70.613 17.9954 70.2164 17.6922 69.8113 17.3681L67.9893 21.4061H68.3611C69.1708 21.4061 69.7573 21.4809 70.1212 21.6304C70.4845 21.7717 70.6665 22.0459 70.6665 22.453C70.6665 23.0678 70.2449 23.3752 69.4025 23.3752L66.601 23.2631ZM101.089 23.3005C100.139 23.4667 99.2632 23.5497 98.462 23.5497C95.4786 23.5497 93.0532 22.6648 91.1857 20.8951C89.3262 19.1254 88.3965 16.7408 88.3965 13.7414C88.3965 10.742 89.3177 8.36572 91.1609 6.61259C93.0119 4.85951 95.458 3.98292 98.499 3.98292C99.6393 3.98292 100.676 4.12836 101.61 4.41912C101.561 4.29453 101.536 4.1408 101.536 3.95804C101.536 3.76693 101.639 3.58826 101.846 3.42208C102.06 3.24762 102.288 3.16041 102.527 3.16041C102.775 3.16041 103.002 3.28085 103.209 3.52179C103.424 3.75443 103.672 4.19897 103.953 4.85537C104.242 5.51171 104.651 6.12657 105.18 6.69985L105.626 7.22331C106.006 7.66365 106.197 8.05832 106.197 8.40725C106.197 9.15505 105.887 9.52893 105.267 9.52893C104.755 9.52893 104.246 9.11352 103.742 8.28266C103.246 7.4518 102.482 6.83694 101.449 6.43812C100.424 6.03102 99.3748 5.82746 98.3007 5.82746C96.053 5.82746 94.2389 6.52124 92.8591 7.90873C91.4872 9.28799 90.8012 11.2114 90.8012 13.6791C90.8012 16.1384 91.5163 18.0702 92.9458 19.4743C94.3754 20.8785 96.0985 21.5806 98.1145 21.5806C100.131 21.5806 101.552 21.1568 102.379 20.3094C102.8 19.8607 103.093 19.491 103.259 19.2002L103.668 18.4648C104.04 17.7503 104.412 17.3473 104.784 17.256C104.907 17.2227 105.077 17.2061 105.292 17.2061C105.507 17.2061 105.713 17.3224 105.911 17.5551C106.11 17.7794 106.209 18.0452 106.209 18.3527C106.209 18.8845 105.87 19.5201 105.192 20.2595C104.523 20.9907 104.069 21.5889 103.829 22.0542C103.597 22.5194 103.457 23.018 103.408 23.5497C103.341 24.2559 102.961 24.6091 102.267 24.6091C101.962 24.6091 101.689 24.4927 101.449 24.2601C101.21 24.0274 101.089 23.7491 101.089 23.4251C101.089 23.3835 101.089 23.342 101.089 23.3005ZM127.807 22.2785C127.807 23.0014 127.393 23.3628 126.567 23.3628C126.17 23.3628 125.79 23.3503 125.427 23.3254C125.071 23.3005 124.678 23.288 124.249 23.288L123.109 23.3254C122.695 23.3503 122.315 23.3628 121.968 23.3628C121.629 23.3628 121.352 23.2755 121.138 23.1011C120.923 22.9183 120.815 22.6773 120.815 22.3782C120.815 22.0791 120.939 21.834 121.187 21.6429C121.443 21.4518 121.782 21.3562 122.204 21.3562H123.109C122.307 18.8221 120.58 16.0387 117.927 13.0061C116.902 13.704 115.816 14.3562 114.667 14.9628V21.3562H115.535C116.113 21.3562 116.518 21.4601 116.749 21.6678C116.981 21.8672 117.097 22.0708 117.097 22.2785C117.097 23.0014 116.655 23.3628 115.77 23.3628L113.477 23.288L110.998 23.3628C110.626 23.3628 110.333 23.2755 110.118 23.1011C109.903 22.9183 109.796 22.6773 109.796 22.3782C109.796 22.0791 109.92 21.834 110.168 21.6429C110.424 21.4518 110.763 21.3562 111.184 21.3562H112.361V5.98949H111.184C110.763 5.98949 110.424 5.89808 110.168 5.71526C109.92 5.5325 109.796 5.29156 109.796 4.99245C109.796 4.69334 109.903 4.45235 110.118 4.26959C110.333 4.07848 110.626 3.98292 110.998 3.98292L113.477 4.07018L115.77 3.98292C116.448 3.98292 116.865 4.18648 117.022 4.59364C117.072 4.70993 117.097 4.83043 117.097 4.95507C117.097 5.64465 116.576 5.98949 115.535 5.98949H114.667V12.9313C116.469 11.9177 118.518 10.3515 120.815 8.23278C121.898 7.23575 122.728 6.37995 123.307 5.66544C123.885 4.95087 124.307 4.49394 124.571 4.29453C124.844 4.08677 125.12 3.98292 125.402 3.98292C125.691 3.98292 125.939 4.06189 126.145 4.21971C126.36 4.37759 126.468 4.60193 126.468 4.89275C126.468 5.18351 126.401 5.44939 126.269 5.69038C126.145 5.93131 125.91 6.23042 125.563 6.58771C124.563 7.58474 123.77 8.34913 123.183 8.88088L121.472 10.3639C120.91 10.8292 120.319 11.2945 119.699 11.7598C122.509 14.726 124.459 17.9248 125.55 21.3562H126.244C126.823 21.3562 127.228 21.4601 127.459 21.6678C127.691 21.8672 127.807 22.0708 127.807 22.2785ZM12.693 55.2053C11.7427 55.3718 10.8667 55.4547 10.0651 55.4547C7.08196 55.4547 4.65659 54.5699 2.78899 52.8002C0.929661 51.0306 0 48.6457 0 45.6465C0 42.6471 0.9214 40.2708 2.7642 38.5177C4.61524 36.7646 7.06128 35.888 10.1023 35.888C11.2427 35.888 12.2798 36.0334 13.2136 36.3242C13.164 36.1996 13.1392 36.0459 13.1392 35.8631C13.1392 35.672 13.2425 35.4933 13.4491 35.3272C13.664 35.1527 13.8912 35.0655 14.1309 35.0655C14.3788 35.0655 14.6061 35.1859 14.8126 35.4269C15.0275 35.6595 15.2754 36.104 15.5563 36.7604C15.8456 37.4168 16.2547 38.0316 16.7835 38.6049L17.2297 39.1284C17.6099 39.5687 17.7999 39.9634 17.7999 40.3123C17.7999 41.0601 17.4901 41.434 16.8703 41.434C16.3579 41.434 15.8497 41.0186 15.3456 40.1877C14.8498 39.3569 14.0854 38.742 13.0525 38.3432C12.0278 37.9361 10.9783 37.7325 9.90398 37.7325C7.65627 37.7325 5.84244 38.4263 4.46239 39.8138C3.09061 41.1931 2.40473 43.1165 2.40473 45.5842C2.40473 48.0437 3.11954 49.975 4.54913 51.3794C5.97878 52.7837 7.70175 53.4857 9.71808 53.4857C11.7344 53.4857 13.1558 53.0619 13.9821 52.2142C14.4036 51.766 14.6969 51.3959 14.8622 51.105L15.2713 50.3701C15.6431 49.6555 16.015 49.2524 16.3869 49.1609C16.5108 49.128 16.6802 49.1109 16.8951 49.1109C17.1099 49.1109 17.3165 49.2274 17.5149 49.4603C17.7132 49.6847 17.8124 49.9506 17.8124 50.2579C17.8124 50.7897 17.4735 51.4251 16.7959 52.1648C16.1266 52.8959 15.6721 53.4942 15.4324 53.9594C15.201 54.4247 15.0605 54.923 15.011 55.4547C14.9448 56.1609 14.5647 56.514 13.8705 56.514C13.5648 56.514 13.2921 56.3981 13.0525 56.1652C12.8128 55.9328 12.693 55.6541 12.693 55.3303C12.693 55.2888 12.693 55.2468 12.693 55.2053ZM26.159 47.653C27.9853 49.0652 29.0058 49.8799 29.2207 50.0957L29.6669 50.5568C29.9231 50.7977 30.1379 50.9184 30.3115 50.9184C30.485 50.9184 30.6379 50.8769 30.7701 50.7934C30.9023 50.7025 31.0593 50.561 31.2411 50.3701C31.4312 50.1707 31.6419 49.975 31.8733 49.7841L34.6375 47.6405L31.2535 40.2999C31.0304 39.8097 30.8527 39.4399 30.7205 39.1907C30.5966 38.9414 30.4809 38.8168 30.3734 38.8168C30.2743 38.8168 30.171 38.9082 30.0636 39.091C29.9644 39.2655 29.8322 39.5396 29.6669 39.9135L26.159 47.653ZM21.8949 55.1681L20.0604 55.2681C19.4158 55.2681 19.0936 55.0059 19.0936 54.4827C19.0936 54.1418 19.3621 53.7638 19.8992 53.3485C20.8578 52.5843 21.7503 51.3959 22.5767 49.7841L26.8903 41.0601L28.4273 37.7824C28.7909 36.9764 29.1008 36.4197 29.357 36.1123C29.6214 35.7966 29.9561 35.6388 30.3611 35.6388C30.766 35.6388 31.1048 35.7758 31.3775 36.05C31.6585 36.3242 31.9931 36.8809 32.3815 37.72L35.0961 43.5527C37.4182 48.1889 38.6536 50.644 38.8024 50.9184L39.261 51.7532C39.6246 52.3929 39.8766 52.7795 40.0172 52.9124C40.1576 53.0454 40.3022 53.1576 40.451 53.249C41.1038 53.6393 41.4302 53.9882 41.4302 54.2955C41.4302 54.9437 41.108 55.2681 40.4634 55.2681L38.5917 55.1803L36.0753 55.2681C35.6539 55.2681 35.3234 55.1846 35.0837 55.0187C34.8441 54.8523 34.7243 54.6034 34.7243 54.2711C34.7243 53.5893 35.4762 53.249 36.9803 53.249C37.0712 53.249 37.162 53.249 37.2529 53.249C37.3439 53.249 37.4348 53.2448 37.5256 53.2363C37.3026 52.9124 37.0712 52.5009 36.8315 52.0026L35.5672 49.4103L33.2368 51.23C32.4766 51.8197 31.9105 52.3435 31.5386 52.8002C31.1668 53.249 30.828 53.4734 30.5222 53.4734C30.2164 53.4734 29.9727 53.3985 29.7908 53.249C29.6173 53.0991 29.4603 52.9417 29.3198 52.7752L28.7992 52.177C28.6505 52.0026 28.4522 51.8154 28.2042 51.616L26.2953 50.183C25.9069 49.9006 25.5103 49.597 25.1054 49.2731L23.2832 53.3112H23.6551C24.4649 53.3112 25.0516 53.3857 25.4152 53.5356C25.7788 53.6766 25.9606 53.9509 25.9606 54.3583C25.9606 54.973 25.5392 55.2803 24.6963 55.2803L21.8949 55.1681ZM55.2683 55.3798C54.2682 55.1724 52.8053 55.0687 50.8801 55.0687C48.9546 55.0687 47.5746 55.1017 46.74 55.1681C45.9053 55.2346 45.4178 55.2681 45.2773 55.2681C44.5418 55.2681 44.1741 54.9272 44.1741 54.2461C44.1741 53.7723 44.5625 53.4484 45.3393 53.274C45.6037 53.2155 45.9219 53.1863 46.2937 53.1863H47.3226V37.8946H46.0706C45.6491 37.8946 45.3104 37.8031 45.0542 37.6203C44.8063 37.4376 44.6823 37.1966 44.6823 36.8975C44.6823 36.5984 44.7897 36.3574 45.0046 36.1747C45.2194 35.9835 45.5128 35.888 45.8847 35.888L48.4877 35.9753L50.9296 35.888C51.591 35.888 52.0083 36.0915 52.1818 36.4987C52.2309 36.615 52.2558 36.7355 52.2558 36.8601C52.2558 37.5497 51.7312 37.8946 50.6818 37.8946H49.6281V53.224C51.7105 53.357 53.0946 53.4234 53.7805 53.4234C54.475 53.4234 54.9129 53.382 55.0948 53.2985C55.5819 53.0991 56.0822 52.5386 56.5942 51.616C57.1151 50.6855 57.4991 50.108 57.7471 49.8841C58.0036 49.6597 58.268 49.5475 58.5404 49.5475C59.0942 49.5475 59.4083 49.8671 59.4823 50.5068C59.4908 50.5403 59.495 50.6318 59.495 50.7812C59.495 50.9306 59.3216 51.2465 58.9741 51.7282C58.6272 52.202 58.2966 52.8087 57.9825 53.5479C57.6688 54.279 57.4536 54.9065 57.3383 55.4297C57.1315 56.3438 56.7761 56.8006 56.2721 56.8006C55.9828 56.8006 55.739 56.6926 55.5406 56.4768C55.3508 56.2609 55.2556 55.978 55.2556 55.6291C55.2556 55.5877 55.2556 55.5462 55.2556 55.5047C55.2556 55.4632 55.2598 55.4218 55.2683 55.3798ZM64.495 45.7212C64.495 47.923 65.1561 49.7512 66.4783 51.205C67.8005 52.6508 69.5563 53.3735 71.7464 53.3735C73.936 53.3735 75.7251 52.6838 77.1134 51.3044C78.5017 49.9171 79.1956 48.0187 79.1956 45.6091C79.1956 43.1996 78.506 41.326 77.1256 39.9883C75.7542 38.6423 73.9978 37.9693 71.8575 37.9693C69.7177 37.9693 67.9533 38.7129 66.565 40.2002C65.1847 41.6791 64.495 43.5195 64.495 45.7212ZM64.8171 52.7253C63.9905 51.8697 63.3505 50.8561 62.8957 49.6847C62.4493 48.5127 62.2267 47.3373 62.2267 46.1574C62.2267 44.0471 62.6646 42.2316 63.5404 40.7111C64.4162 39.1824 65.5983 37.9984 67.0854 37.1592C68.5811 36.3117 70.209 35.888 71.9691 35.888C73.2336 35.888 74.44 36.104 75.5887 36.5361C76.7459 36.9681 77.7624 37.5913 78.6382 38.4055C79.5225 39.2198 80.2248 40.2126 80.7452 41.3842C81.2662 42.5557 81.5264 43.8768 81.5264 45.3474C81.5264 48.3303 80.6379 50.7604 78.8614 52.638C77.0928 54.5157 74.7499 55.4547 71.8332 55.4547C68.9243 55.4547 66.5857 54.5449 64.8171 52.7253ZM100.05 42.4684C100.05 40.2168 98.9755 38.8002 96.8267 38.2186C95.8102 37.9527 94.2648 37.8197 92.1906 37.8197C91.4803 37.8197 90.9763 37.8281 90.6785 37.8447V47.0049H93.1082C96.7691 47.0049 98.9628 46.145 99.69 44.4251C99.9296 43.8601 100.05 43.2079 100.05 42.4684ZM91.7818 55.2681L89.4886 55.1931C89.1829 55.1931 88.9433 55.1974 88.7698 55.2053L88.224 55.2303C87.9104 55.2553 87.5756 55.2681 87.2202 55.2681C86.8733 55.2681 86.5919 55.1804 86.3772 55.0059C86.1625 54.8235 86.0551 54.5821 86.0551 54.2833C86.0551 53.9839 86.1789 53.7393 86.4269 53.5479C86.6829 53.357 87.0219 53.2613 87.4434 53.2613H88.4351V38.0441C87.8152 38.1687 87.3276 38.231 86.9722 38.231C86.6253 38.231 86.3238 38.1396 86.0673 37.9569C85.8113 37.7658 85.6833 37.5539 85.6833 37.3212C85.6833 36.5818 86.1085 36.158 86.96 36.05C87.8195 35.942 89.0798 35.888 90.7404 35.888C92.4096 35.888 93.6244 35.9088 94.3849 35.9503C98.5498 36.1497 101.099 37.5331 102.033 40.1005C102.273 40.7735 102.392 41.5171 102.392 42.3313C102.392 43.9598 101.905 45.3266 100.93 46.4317C99.9629 47.5367 98.5826 48.2639 96.7897 48.6127C97.5909 49.9421 98.252 50.8684 98.773 51.3916C99.7477 52.3722 100.698 52.9582 101.624 53.1491C102.549 53.3405 103.082 53.6351 103.223 54.0339C103.264 54.1668 103.285 54.3412 103.285 54.5577C103.285 54.7736 103.177 54.9772 102.963 55.1681C102.747 55.359 102.442 55.4547 102.045 55.4547C101.169 55.4547 100.397 55.2553 99.7271 54.8565C98.5292 54.1418 97.5624 53.3527 96.8267 52.4886C96.091 51.6245 95.3432 50.4116 94.5832 48.8493H90.6785V53.2613H91.5464C92.1245 53.2613 92.5296 53.365 92.7613 53.5729C92.9924 53.7723 93.1082 53.9759 93.1082 54.1833C93.1082 54.9065 92.6661 55.2681 91.7818 55.2681ZM110.255 55.1931L107.9 55.2681C107.528 55.2681 107.235 55.1804 107.02 55.0059C106.806 54.8235 106.698 54.5821 106.698 54.2833C106.698 53.9839 106.822 53.7393 107.07 53.5479C107.326 53.357 107.665 53.2613 108.086 53.2613H109.14V37.8946H108.086C107.665 37.8946 107.326 37.8031 107.07 37.6203C106.822 37.4376 106.698 37.1966 106.698 36.8975C106.698 36.5984 106.806 36.3574 107.02 36.1747C107.235 35.9835 107.528 35.888 107.9 35.888L110.255 35.9753L112.425 35.888C113.102 35.888 113.52 36.0915 113.677 36.4987C113.726 36.615 113.751 36.7355 113.751 36.8601C113.751 37.5497 113.23 37.8946 112.189 37.8946H111.445V53.2613H112.189C112.768 53.2613 113.173 53.365 113.404 53.5729C113.635 53.7723 113.751 53.9759 113.751 54.1833C113.751 54.9065 113.309 55.2681 112.425 55.2681L110.255 55.1931ZM133.055 50.5695C133.642 50.5695 133.935 50.8726 133.935 51.4794C133.935 51.7697 133.82 52.0648 133.588 52.3642C133.027 53.1033 132.601 53.9137 132.312 54.7943L132.163 55.2681C132.064 55.6334 131.989 55.945 131.94 56.2024C131.899 56.4683 131.787 56.6677 131.605 56.8006C131.432 56.9335 131.221 57 130.973 57C130.733 57 130.514 56.8878 130.316 56.6639C130.126 56.4395 130.031 56.2401 130.031 56.0657V55.7164C130.031 55.6749 130.035 55.6334 130.043 55.5919C129.043 55.4175 127.948 55.3303 126.758 55.3303C125.502 55.2888 124.428 55.2681 123.535 55.2681C122.643 55.2681 121.812 55.3011 121.044 55.3675C120.284 55.434 119.751 55.4675 119.445 55.4675C118.718 55.4675 118.354 55.1266 118.354 54.4455C118.354 53.9717 118.743 53.6478 119.52 53.4734C119.784 53.4149 120.102 53.3857 120.474 53.3857H121.503V37.9818H121.019C119.441 37.9818 118.652 37.5996 118.652 36.8352C118.652 36.2037 119.226 35.888 120.375 35.888L125.928 36.0625C127.415 36.0625 128.671 35.9711 129.696 35.7883C129.655 35.6553 129.634 35.5141 129.634 35.3646C129.634 35.2067 129.713 35.053 129.87 34.9035C130.027 34.7456 130.254 34.6667 130.551 34.6667C131.295 34.6667 132.134 35.9503 133.068 38.5177C133.241 38.9996 133.328 39.3652 133.328 39.6144C133.328 40.1877 133.072 40.4743 132.56 40.4743C132.105 40.4743 131.725 40.0299 131.419 39.1408C131.229 38.5925 130.923 38.2103 130.502 37.9943C130.089 37.7699 129.56 37.6578 128.915 37.6578H128.605C128.176 37.6578 127.672 37.6827 127.093 37.7325C126.515 37.7824 126.056 37.8197 125.717 37.8447L124.688 37.9194C124.349 37.9444 124.056 37.9652 123.808 37.9818V43.4654C125.792 43.4654 126.924 43.4406 127.205 43.3907C127.486 43.3325 127.692 43.2494 127.825 43.1414C127.957 43.0251 128.048 42.8091 128.097 42.4933C128.155 42.1693 128.287 41.9325 128.494 41.783C128.7 41.6251 128.911 41.5462 129.126 41.5462C129.341 41.5462 129.527 41.6127 129.684 41.7456C129.849 41.8702 129.932 42.0489 129.932 42.2815C129.932 42.5058 129.857 42.8174 129.708 43.2162C129.56 43.615 129.485 44.0138 129.485 44.4127C129.485 44.8032 129.56 45.1936 129.708 45.5842L130.031 46.4815C130.114 46.6892 130.155 46.9218 130.155 47.1794C130.155 47.4287 130.06 47.6281 129.87 47.7776C129.688 47.9273 129.46 48.0017 129.188 48.0017C128.651 48.0017 128.316 47.653 128.184 46.9551C128.06 46.2571 127.919 45.8085 127.762 45.6091C127.606 45.4014 127.324 45.2975 126.92 45.2975H123.808V53.3857C124.164 53.3942 124.519 53.407 124.875 53.4234L125.977 53.4734C126.2 53.4899 126.457 53.5021 126.746 53.5107C127.043 53.5186 127.39 53.5314 127.787 53.5479C128.192 53.5644 128.667 53.5729 129.213 53.5729C129.758 53.5729 130.167 53.4814 130.44 53.2985C130.713 53.1161 131.051 52.721 131.456 52.1148C131.861 51.5001 132.167 51.0885 132.373 50.8811C132.58 50.6732 132.808 50.5695 133.055 50.5695ZM146.323 35.7135C146.307 35.6221 146.298 35.4933 146.298 35.3272C146.298 35.1527 146.389 34.9865 146.571 34.8286C146.761 34.6708 146.968 34.5918 147.19 34.5918C147.414 34.5918 147.641 34.6999 147.873 34.9159C148.104 35.1319 148.368 35.5556 148.666 36.1871C148.972 36.8103 149.298 37.342 149.645 37.7824L150.352 38.6672C150.715 39.1242 150.897 39.5189 150.897 39.8512C150.897 40.5408 150.591 40.8857 149.98 40.8857C149.492 40.8857 149.004 40.491 148.517 39.7017C148.029 38.9123 147.616 38.3889 147.278 38.1313C146.947 37.8738 146.563 37.745 146.125 37.745C143.422 37.745 141.7 38.5177 140.956 40.0631C140.848 40.2708 140.795 40.5076 140.795 40.7735C140.795 41.3883 141.055 41.866 141.575 42.2067C142.096 42.5474 143.038 42.7842 144.402 42.9171C147.079 43.1747 149.009 43.7729 150.19 44.7118C151.397 45.6839 152 47.0423 152 48.7871C152 50.05 151.641 51.1965 150.922 52.227C150.211 53.257 149.327 54.0339 148.269 54.5577C147.054 55.1559 145.583 55.4547 143.856 55.4547C143.394 55.4547 142.947 55.4255 142.518 55.3675C142.361 55.7663 142.191 56.053 142.01 56.2274C141.836 56.4018 141.613 56.489 141.34 56.489C140.646 56.489 140.266 56.1566 140.2 55.492C140.142 54.8273 139.84 54.0961 139.295 53.2985L137.708 51.0805C137.212 50.3738 136.927 49.9048 136.853 49.6719C136.787 49.4396 136.754 49.2194 136.754 49.0115C136.754 48.7956 136.828 48.5962 136.977 48.4133C137.125 48.2304 137.34 48.1389 137.621 48.1389C137.911 48.1389 138.179 48.2346 138.427 48.4255C138.683 48.6084 138.969 48.978 139.282 49.5347C140.034 50.8726 140.691 51.7904 141.253 52.2892C142.063 53.0119 143.34 53.3735 145.083 53.3735C145.678 53.3735 146.29 53.2613 146.918 53.0369C147.546 52.8045 148.067 52.5009 148.48 52.127C149.331 51.3379 149.757 50.3116 149.757 49.0487C149.757 47.7859 149.261 46.8388 148.269 46.2073C147.286 45.5676 145.691 45.1438 143.485 44.9361C140.063 44.5871 138.353 43.2951 138.353 41.0601C138.353 40.1628 138.782 39.2821 139.642 38.418C141.121 36.9308 143.348 36.0293 146.323 35.7135Z" fill="#FFF6E0"/>
<path d="M114.515 12.9934C116.536 12.0546 120.597 8.47349 122.184 6.87823C122.652 6.87823 124.299 7.94174 123.77 8.47349C121.845 10.4091 117.847 13.3601 114.515 15.1204V12.9934Z" fill="#A5305C"/>
<path d="M126.307 2.62422C126.07 2.65644 125.859 2.7595 125.532 3.00293C125.055 3.35586 124.33 4.39511 123.318 5.59947C123.281 5.64329 123.192 5.74762 123.12 5.83132C123.048 5.91507 122.75 6.30059 122.713 6.34435C122.832 6.20525 122.676 6.38944 122.713 6.34435C122.594 6.48479 122.215 6.83877 122.184 6.8761C122.077 7.00367 121.989 7.06471 121.919 7.14198C121.867 7.19973 121.711 7.34346 121.655 7.40785L121.39 7.66331V8.52634C121.39 9.06607 121.393 9.50657 121.395 9.50657C121.416 9.50657 121.744 9.55937 121.798 9.57229C121.84 9.58128 121.935 9.58516 122.053 9.58128C122.258 9.57357 122.345 9.55294 122.55 9.45892C122.691 9.39325 123.012 9.18842 123.053 9.1369C123.062 9.12658 123.1 9.09569 123.139 9.06862C123.177 9.04155 123.216 9.00938 123.226 8.99651C123.236 8.98492 123.28 8.94366 123.324 8.9076C123.369 8.87028 123.529 8.71309 123.678 8.55723C123.936 8.29061 124.034 8.1824 124.261 7.92222C124.313 7.86165 124.521 7.72222 124.564 7.67586C124.509 7.74153 124.606 7.62949 124.564 7.67586C124.618 7.61018 124.777 7.46794 124.828 7.40998C124.98 7.23737 125.071 7.175 125.093 7.1441C125.103 7.12735 125.307 6.93364 125.357 6.87823C125.476 6.74295 125.509 6.73753 125.621 6.60097C125.727 6.47373 125.845 6.37892 125.886 6.3351C125.928 6.29261 126.129 6.11283 126.15 6.0806C126.125 6.10251 126.172 6.04838 126.15 6.0806C126.118 6.12054 126.174 6.05742 126.15 6.0806C126.206 6.00844 126.415 5.54885 126.415 5.54885C126.468 5.48829 126.623 5.3461 126.679 5.28298C126.92 5.00859 126.944 5.0171 126.839 5.01109C126.846 5.0188 126.852 5.05486 126.851 5.09224C126.834 5.94756 126.833 6.23736 126.845 6.41385C126.881 6.92524 127.027 7.35542 127.267 7.66331C127.317 7.7277 127.71 8.11285 128.147 8.52634C128.314 8.68475 128.521 8.88314 128.607 8.96557C128.693 9.04804 128.833 9.18199 128.918 9.26313C129.215 9.54135 129.568 9.87757 129.659 9.9677C129.807 10.112 129.993 10.2137 130.206 10.2653C130.418 10.3155 130.525 10.3245 130.864 10.3232C131.167 10.322 131.296 10.3142 131.608 10.2795C131.672 10.2717 131.781 10.2601 131.849 10.2537C131.918 10.2472 132.029 10.233 132.097 10.2228C132.166 10.2125 132.264 10.197 132.314 10.1893C132.365 10.1816 132.443 10.17 132.488 10.1622C132.533 10.1558 132.619 10.1416 132.68 10.1313C132.796 10.1107 132.862 10.1004 133.108 10.0656C133.186 10.0553 133.29 10.0373 133.337 10.0283C133.386 10.018 133.446 10.0076 133.474 10.0038C133.622 9.98445 133.819 9.95356 133.895 9.93681C133.944 9.92649 134.024 9.91235 134.075 9.90591C134.195 9.88916 134.346 9.86337 134.509 9.82987C134.581 9.81445 134.729 9.78866 134.838 9.77064C134.946 9.75261 135.072 9.73198 135.116 9.72427C135.161 9.71656 135.263 9.69981 135.343 9.68561C135.423 9.67274 135.554 9.64956 135.635 9.63669C135.714 9.62249 135.86 9.59931 135.96 9.58389C136.059 9.56841 136.176 9.54778 136.22 9.53752C136.264 9.52848 136.352 9.51433 136.412 9.50657C136.474 9.50013 136.546 9.48854 136.573 9.48083C136.601 9.4744 136.645 9.46796 136.673 9.46796C136.7 9.46796 136.758 9.45892 136.803 9.44861C136.847 9.43829 136.951 9.42027 137.036 9.40995C137.175 9.39192 137.214 9.39453 137.239 9.42027C137.241 9.42154 137.246 9.58771 137.249 9.78994C137.253 9.99222 137.257 9.31338 137.257 8.2829C137.257 7.25237 137.254 6.49239 137.249 6.59544C137.246 6.70366 137.235 6.79384 137.227 6.81059C137.208 6.84664 137.131 6.87371 137.001 6.89174C136.903 6.9046 136.21 7.02313 135.972 7.06562C135.785 7.10039 135.411 7.16351 135.284 7.18282C135.216 7.19313 135.151 7.20345 135.141 7.20733C135.132 7.20988 135.087 7.21892 135.042 7.22536C134.997 7.23179 134.778 7.26912 134.552 7.30905C134.328 7.34771 133.949 7.41211 133.709 7.45204C133.471 7.49198 133.222 7.53579 133.157 7.54866C133.093 7.56153 132.926 7.59115 132.786 7.61306C132.645 7.63496 132.381 7.67878 132.196 7.70968C132.013 7.74057 131.801 7.77535 131.725 7.78694C131.651 7.79853 131.544 7.81656 131.49 7.8256C131.435 7.83591 131.352 7.85006 131.304 7.85649C131.257 7.86298 131.145 7.88101 131.056 7.89643C130.968 7.9119 130.845 7.9312 130.783 7.94152C130.722 7.95056 130.616 7.96731 130.547 7.9789C129.833 8.09094 129.372 8.1489 129.332 8.13088C129.274 8.10381 129.27 8.07164 129.288 7.80241C129.296 7.66586 129.309 7.48294 129.313 7.39408C129.319 7.30523 129.326 7.22403 129.331 7.21376C129.341 7.18797 129.363 6.92263 129.399 6.41513C129.407 6.31979 129.417 6.17169 129.424 6.08666C129.434 5.95527 129.431 5.30733 129.42 5.05618C129.414 4.94026 129.389 4.74314 129.37 4.66976C129.359 4.63365 129.347 4.57314 129.339 4.53448C129.322 4.43786 129.277 4.30519 129.213 4.16736C129.17 4.07335 129.141 4.03214 129.06 3.94711C128.978 3.86208 128.944 3.83635 128.867 3.80412C128.816 3.78094 128.626 3.6882 128.446 3.59674C128.265 3.50528 128.053 3.39967 127.974 3.36229C127.751 3.25669 127.14 2.95013 126.845 2.79555C126.697 2.71823 126.555 2.64996 126.529 2.64352C126.468 2.62677 126.355 2.61779 126.307 2.62422Z" fill="#A5305C"/>
</svg>
