<svg width="378" height="146" viewBox="0 0 378 146" fill="none" xmlns="http://www.w3.org/2000/svg">
<g filter="url(#filter0_d_8_27)">
<path d="M69.0392 2.69671C72.704 3.34208 77.89 3.66484 84.5972 3.66484C91.3045 3.66484 96.2716 3.34208 99.4984 2.69671V2.35105C99.4984 1.6135 99.752 1.03726 100.259 0.622328C100.789 0.2074 101.4 0 102.091 0C102.806 0 103.359 0.218987 103.751 0.65696C104.143 1.07176 104.396 1.54423 104.512 2.07438C104.719 3.27295 105.065 4.5637 105.549 5.94662L106.137 7.64083C106.367 8.24012 106.632 8.88549 106.932 9.57695C107.231 10.2454 107.381 10.9713 107.381 11.7551C107.381 12.5387 107.139 13.1495 106.655 13.5875C106.194 14.0254 105.618 14.2444 104.927 14.2444C103.636 14.2444 102.702 13.4722 102.126 11.9279C101.573 10.3606 100.905 9.33492 100.121 8.85086C99.3601 8.34375 98.0349 8.09026 96.1449 8.09026H95.315L87.4323 8.64346V50.9961H91.7195C93.3098 50.9961 94.4162 51.2843 95.0385 51.8605C95.6839 52.4137 96.0065 53.0591 96.0065 53.7966C96.0065 54.5342 95.73 55.1795 95.1768 55.7327C94.6236 56.2859 93.6786 56.5625 92.3418 56.5625H91.5811C91.2585 56.5625 90.9243 56.5625 90.5785 56.5625C90.2328 56.5394 89.887 56.528 89.5413 56.528C89.1955 56.5049 88.6423 56.4703 87.8818 56.4242C87.1212 56.3781 85.9341 56.3551 84.3207 56.3551C82.7303 56.3551 81.4626 56.3781 80.5176 56.4242C79.5956 56.4703 78.9733 56.4933 78.6506 56.4933L77.6134 56.5625C77.2677 56.5625 76.945 56.5625 76.6454 56.5625H75.8502C74.8129 56.5625 73.9832 56.3206 73.3609 55.8365C72.7616 55.3294 72.462 54.661 72.462 53.8312C72.462 53.0014 72.8193 52.3215 73.5338 51.7914C74.2483 51.2612 75.1932 50.9961 76.3687 50.9961H81.0017V8.57433L77.1986 8.29766C76.4841 8.25157 75.8963 8.21707 75.4352 8.1939C74.9744 8.14781 74.5825 8.12477 74.2599 8.12477C73.9371 8.10172 73.6375 8.09026 73.3609 8.09026C73.0843 8.06722 72.3813 8.05563 71.2519 8.05563C70.1224 8.05563 69.1659 8.30925 68.3823 8.81623C67.6217 9.30029 67.0224 10.1416 66.5844 11.3402C66.1466 12.5157 65.7086 13.2993 65.2706 13.6912C64.8328 14.0599 64.2796 14.2444 63.6112 14.2444C62.9197 14.2444 62.3435 14.0254 61.8825 13.5875C61.3984 13.1495 61.1564 12.5387 61.1564 11.7551C61.1564 10.9713 61.3062 10.2454 61.6059 9.57695C61.9055 8.88549 62.1706 8.22853 62.401 7.6062L62.9889 5.94662C63.2884 5.04776 63.5074 4.32167 63.6457 3.76847L64.026 2.14352C64.3026 0.714506 65.0517 0 66.2733 0C67.4949 0 68.3362 0.437973 68.7972 1.31379C68.9585 1.6135 69.0392 1.95916 69.0392 2.35105V2.69671ZM148.79 25.5744C148.79 20.1232 146.175 16.6934 140.945 15.2853C138.472 14.6416 134.71 14.3197 129.661 14.3197C127.93 14.3197 126.703 14.3399 125.979 14.3801V36.5576H131.893C140.804 36.5576 146.144 34.4756 147.915 30.3116C148.499 28.9438 148.79 27.3648 148.79 25.5744ZM128.665 56.5625L123.083 56.3814C122.338 56.3814 121.755 56.3915 121.332 56.4117L120.005 56.472C119.24 56.5323 118.426 56.5625 117.561 56.5625C116.716 56.5625 116.032 56.3513 115.509 55.9289C114.986 55.4863 114.725 54.903 114.725 54.1788C114.725 53.4547 115.026 52.8612 115.63 52.3986C116.253 51.9359 117.078 51.7046 118.104 51.7046H120.518V14.8629C119.009 15.1646 117.822 15.3155 116.957 15.3155C116.112 15.3155 115.378 15.0942 114.755 14.6517C114.131 14.1891 113.819 13.676 113.819 13.1128C113.819 11.3225 114.855 10.2966 116.927 10.0351C119.019 9.77366 122.087 9.64287 126.13 9.64287C130.194 9.64287 133.151 9.6932 135.001 9.79375C145.139 10.2765 151.345 13.6258 153.618 19.8415C154.201 21.4708 154.493 23.2713 154.493 25.2425C154.493 29.1852 153.306 32.4942 150.932 35.1696C148.579 37.845 145.22 39.6051 140.854 40.4499C142.806 43.6684 144.415 45.9113 145.682 47.1786C148.056 49.5522 150.37 50.9704 152.623 51.4331C154.875 51.8956 156.173 52.6098 156.514 53.5753C156.615 53.8972 156.665 54.3197 156.665 54.8426C156.665 55.3657 156.404 55.8585 155.881 56.3211C155.358 56.7838 154.614 57.0151 153.649 57.0151C151.515 57.0151 149.635 56.5323 148.006 55.5668C145.089 53.8369 142.735 51.9259 140.945 49.8339C139.155 47.7418 137.335 44.8049 135.483 41.0232H125.979V51.7046H128.091C129.499 51.7046 130.485 51.956 131.048 52.4589C131.611 52.9417 131.893 53.4346 131.893 53.9375C131.893 55.6875 130.817 56.5625 128.665 56.5625ZM176.5 38.1265C180.945 41.5462 183.43 43.5175 183.953 44.0406L185.039 45.157C185.662 45.7403 186.186 46.0321 186.608 46.0321C187.031 46.0321 187.403 45.9314 187.725 45.7303C188.046 45.509 188.429 45.1671 188.872 44.7044C189.334 44.2216 189.846 43.7489 190.41 43.2862L197.138 38.0964L188.901 20.3243C188.358 19.1374 187.925 18.2423 187.604 17.6389C187.302 17.0354 187.02 16.7336 186.759 16.7336C186.517 16.7336 186.266 16.9549 186.005 17.3975C185.764 17.8199 185.442 18.4837 185.039 19.3889L176.5 38.1265ZM166.121 56.3211L161.655 56.5625C160.086 56.5625 159.302 55.9289 159.302 54.6616C159.302 53.8369 159.956 52.9216 161.262 51.9159C163.596 50.0652 165.768 47.1887 167.78 43.2862L178.28 22.1649L182.021 14.2292C182.907 12.278 183.662 10.9303 184.285 10.186C184.928 9.42169 185.743 9.03946 186.729 9.03946C187.714 9.03946 188.539 9.37135 189.202 10.0351C189.887 10.6989 190.701 12.0467 191.647 14.0783L198.255 28.1995C203.907 39.424 206.914 45.3681 207.276 46.0321L208.394 48.0537C209.278 49.6025 209.892 50.5379 210.233 50.8598C210.576 51.1816 210.927 51.4532 211.29 51.6745C212.879 52.6198 213.673 53.4647 213.673 54.209C213.673 55.778 212.889 56.5625 211.32 56.5625L206.764 56.3513L200.638 56.5625C199.612 56.5625 198.808 56.3614 198.225 55.959C197.641 55.5567 197.35 54.9532 197.35 54.1486C197.35 52.4992 199.18 51.6745 202.841 51.6745C203.063 51.6745 203.284 51.6745 203.505 51.6745C203.727 51.6745 203.948 51.6644 204.168 51.6442C203.626 50.8598 203.063 49.864 202.479 48.6571L199.401 42.381L193.729 46.7863C191.879 48.2146 190.5 49.4818 189.595 50.5882C188.69 51.6745 187.865 52.2175 187.121 52.2175C186.377 52.2175 185.783 52.0365 185.34 51.6745C184.918 51.3123 184.536 50.9301 184.195 50.5278L182.926 49.0795C182.565 48.6571 182.082 48.2045 181.478 47.7218L176.832 44.2517C175.887 43.5679 174.921 42.8336 173.935 42.0491L169.5 51.8253H170.405C172.376 51.8253 173.804 52.0064 174.69 52.3684C175.574 52.7104 176.017 53.3742 176.017 54.3598C176.017 55.8485 174.991 56.5927 172.94 56.5927L166.121 56.3211ZM250.073 56.4117C247.76 56.814 245.628 57.0151 243.677 57.0151C236.415 57.0151 230.511 54.8727 225.965 50.5882C221.439 46.3036 219.176 40.5304 219.176 33.2687C219.176 26.007 221.418 20.2539 225.905 16.0094C230.411 11.7651 236.365 9.64287 243.767 9.64287C246.543 9.64287 249.068 9.99497 251.341 10.6989C251.22 10.3973 251.16 10.0251 251.16 9.58261C251.16 9.11992 251.411 8.68736 251.914 8.28505C252.437 7.86265 252.99 7.65152 253.573 7.65152C254.177 7.65152 254.729 7.94311 255.233 8.52643C255.756 9.08967 256.359 10.1659 257.043 11.7551C257.747 13.3441 258.744 14.8328 260.031 16.2207L261.116 17.488C262.042 18.5541 262.505 19.5096 262.505 20.3544C262.505 22.1649 261.751 23.07 260.242 23.07C258.995 23.07 257.757 22.0643 256.531 20.0528C255.323 18.0412 253.463 16.5526 250.948 15.587C248.453 14.6014 245.899 14.1086 243.285 14.1086C237.813 14.1086 233.397 15.7883 230.039 19.1475C226.699 22.4867 225.029 27.1435 225.029 33.1178C225.029 39.072 226.77 43.7489 230.25 47.1484C233.73 50.548 237.924 52.2477 242.831 52.2477C247.74 52.2477 251.199 51.2218 253.212 49.1701C254.238 48.0838 254.951 47.1887 255.354 46.4846L256.349 44.7044C257.254 42.9745 258.16 41.9988 259.065 41.7776C259.367 41.6971 259.779 41.6568 260.303 41.6568C260.825 41.6568 261.327 41.9385 261.81 42.5018C262.293 43.0448 262.535 43.6885 262.535 44.4329C262.535 45.7203 261.71 47.2591 260.061 49.0493C258.431 50.8195 257.325 52.2678 256.742 53.3943C256.178 54.5208 255.837 55.7277 255.716 57.0151C255.555 58.7249 254.629 59.5799 252.94 59.5799C252.196 59.5799 251.532 59.2982 250.948 58.7349C250.365 58.1717 250.073 57.4979 250.073 56.7133C250.073 56.6128 250.073 56.5122 250.073 56.4117ZM315.108 53.9375C315.108 55.6875 314.101 56.5625 312.091 56.5625C311.125 56.5625 310.199 56.5323 309.315 56.472C308.45 56.4117 307.493 56.3814 306.448 56.3814L303.672 56.472C302.666 56.5323 301.741 56.5625 300.895 56.5625C300.071 56.5625 299.397 56.3513 298.874 55.9289C298.352 55.4863 298.09 54.903 298.09 54.1788C298.09 53.4547 298.391 52.8612 298.995 52.3986C299.618 51.9359 300.444 51.7046 301.47 51.7046H303.672C301.721 45.5694 297.516 38.8306 291.06 31.4885C288.565 33.1782 285.92 34.7572 283.124 36.2257V51.7046H285.236C286.644 51.7046 287.63 51.956 288.193 52.4589C288.757 52.9417 289.039 53.4346 289.039 53.9375C289.039 55.6875 287.962 56.5625 285.81 56.5625L280.228 56.3814L274.192 56.5625C273.287 56.5625 272.573 56.3513 272.05 55.9289C271.527 55.4863 271.266 54.903 271.266 54.1788C271.266 53.4547 271.567 52.8612 272.171 52.3986C272.794 51.9359 273.619 51.7046 274.645 51.7046H277.511V14.5009H274.645C273.619 14.5009 272.794 14.2796 272.171 13.8369C271.567 13.3945 271.266 12.8111 271.266 12.087C271.266 11.3628 271.527 10.7794 272.05 10.3369C272.573 9.87421 273.287 9.64287 274.192 9.64287L280.228 9.85413L285.81 9.64287C287.459 9.64287 288.475 10.1357 288.857 11.1214C288.978 11.403 289.039 11.6947 289.039 11.9965C289.039 13.666 287.77 14.5009 285.236 14.5009H283.124V31.3074C287.509 28.8533 292.498 25.0615 298.09 19.932C300.725 17.5181 302.747 15.4462 304.155 13.7163C305.562 11.9863 306.588 10.8801 307.232 10.3973C307.896 9.89429 308.57 9.64287 309.254 9.64287C309.959 9.64287 310.561 9.83404 311.065 10.2161C311.587 10.5984 311.849 11.1415 311.849 11.8456C311.849 12.5496 311.688 13.1932 311.366 13.7767C311.065 14.36 310.492 15.0842 309.646 15.9492C307.213 18.3631 305.282 20.2137 303.853 21.5011L299.689 25.0916C298.321 26.2181 296.883 27.3446 295.374 28.4711C302.214 35.6524 306.96 43.3969 309.616 51.7046H311.305C312.714 51.7046 313.7 51.956 314.262 52.4589C314.826 52.9417 315.108 53.4346 315.108 53.9375ZM34.8974 133.655C32.5841 134.058 30.452 134.259 28.5006 134.259C21.239 134.259 15.3351 132.117 10.789 127.832C6.26299 123.548 4 117.774 4 110.513C4 103.251 6.24288 97.4977 10.7286 93.2533C15.2345 89.009 21.1886 86.8867 28.5912 86.8867C31.3672 86.8867 33.8916 87.2388 36.1648 87.9428C36.044 87.6411 35.9836 87.2689 35.9836 86.8265C35.9836 86.3638 36.235 85.9312 36.738 85.5289C37.261 85.1065 37.8142 84.8954 38.3975 84.8954C39.001 84.8954 39.5542 85.187 40.0571 85.7703C40.58 86.3335 41.1835 87.4098 41.8674 88.9989C42.5715 90.588 43.5673 92.0766 44.8547 93.4645L45.9408 94.7319C46.8662 95.798 47.3288 96.7535 47.3288 97.5983C47.3288 99.4087 46.5745 100.314 45.0658 100.314C43.8187 100.314 42.5815 99.3082 41.3545 97.2966C40.1476 95.285 38.2869 93.7964 35.7725 92.8309C33.2782 91.8453 30.7235 91.3524 28.1084 91.3524C22.637 91.3524 18.2217 93.0321 14.8624 96.3913C11.5232 99.7306 9.85362 104.387 9.85362 110.362C9.85362 116.316 11.5936 120.992 15.0735 124.392C18.5536 127.792 22.7477 129.492 27.6559 129.492C32.564 129.492 36.0239 128.466 38.0355 126.413C39.0614 125.328 39.7754 124.432 40.1777 123.728L41.1735 121.949C42.0786 120.218 42.9838 119.243 43.8891 119.021C44.1907 118.941 44.6031 118.9 45.1262 118.9C45.6491 118.9 46.1521 119.182 46.6349 119.746C47.1176 120.289 47.359 120.933 47.359 121.677C47.359 122.964 46.5342 124.503 44.8848 126.294C43.2555 128.064 42.1491 129.512 41.5658 130.639C41.0025 131.765 40.6605 132.971 40.5398 134.259C40.3789 135.968 39.4535 136.823 37.7638 136.823C37.0196 136.823 36.3558 136.543 35.7725 135.979C35.189 135.416 34.8974 134.742 34.8974 133.958C34.8974 133.857 34.8974 133.755 34.8974 133.655ZM67.6764 115.37C72.122 118.789 74.6063 120.762 75.1292 121.284L76.2155 122.401C76.839 122.984 77.3621 123.276 77.7845 123.276C78.2069 123.276 78.5791 123.176 78.9009 122.973C79.2228 122.753 79.605 122.411 80.0475 121.949C80.5101 121.466 81.023 120.992 81.5863 120.53L88.315 115.34L80.0777 97.5681C79.5346 96.3813 79.102 95.4861 78.7802 94.8827C78.4785 94.2792 78.1968 93.9774 77.9354 93.9774C77.694 93.9774 77.4426 94.1987 77.1811 94.6413C76.9397 95.0637 76.6178 95.7275 76.2155 96.6327L67.6764 115.37ZM57.2968 133.565L52.8312 133.807C51.2621 133.807 50.4777 133.172 50.4777 131.905C50.4777 131.08 51.1315 130.165 52.4389 129.159C54.7723 127.309 56.9448 124.432 58.9564 120.53L69.4567 99.4087L73.1981 91.4731C74.0832 89.5219 74.8375 88.1741 75.4611 87.4299C76.1048 86.6655 76.9195 86.2833 77.9052 86.2833C78.8909 86.2833 79.7156 86.6152 80.3793 87.279C81.0633 87.9428 81.878 89.2905 82.8235 91.3222L89.4314 105.443C95.0838 116.668 98.091 122.612 98.4532 123.276L99.5696 125.297C100.455 126.846 101.068 127.782 101.41 128.104C101.752 128.426 102.104 128.697 102.466 128.919C104.055 129.864 104.85 130.708 104.85 131.452C104.85 133.022 104.065 133.807 102.496 133.807L97.9403 133.595L91.815 133.807C90.7892 133.807 89.9846 133.605 89.4011 133.203C88.8178 132.8 88.5262 132.198 88.5262 131.393C88.5262 129.743 90.3566 128.919 94.0177 128.919C94.239 128.919 94.4602 128.919 94.6815 128.919C94.9028 128.919 95.1241 128.908 95.3453 128.888C94.8023 128.104 94.239 127.107 93.6556 125.901L90.5779 119.625L84.9054 124.03C83.0548 125.458 81.6768 126.726 80.7716 127.832C79.8664 128.919 79.0417 129.462 78.2974 129.462C77.5531 129.462 76.9598 129.28 76.5172 128.919C76.0948 128.556 75.7125 128.175 75.3706 127.772L74.1033 126.323C73.7413 125.901 73.2585 125.448 72.655 124.965L68.0084 121.496C67.063 120.812 66.0974 120.077 65.1118 119.293L60.6762 129.069H61.5815C63.5527 129.069 64.981 129.25 65.8661 129.613C66.7511 129.954 67.1936 130.618 67.1936 131.604C67.1936 133.092 66.1678 133.837 64.116 133.837L57.2968 133.565ZM138.535 134.077C136.1 133.575 132.539 133.324 127.853 133.324C123.166 133.324 119.807 133.404 117.775 133.565C115.743 133.726 114.556 133.807 114.214 133.807C112.424 133.807 111.529 132.982 111.529 131.333C111.529 130.186 112.474 129.401 114.365 128.979C115.009 128.838 115.784 128.767 116.689 128.767H119.193V91.7447H116.146C115.12 91.7447 114.295 91.5234 113.671 91.0808C113.068 90.6383 112.766 90.055 112.766 89.3308C112.766 88.6067 113.028 88.0232 113.551 87.5807C114.074 87.1181 114.788 86.8867 115.693 86.8867L122.029 87.098L127.973 86.8867C129.583 86.8867 130.599 87.3795 131.021 88.3653C131.141 88.6468 131.202 88.9386 131.202 89.2403C131.202 90.9098 129.925 91.7447 127.37 91.7447H124.805V128.858C129.874 129.18 133.243 129.341 134.913 129.341C136.604 129.341 137.669 129.241 138.112 129.038C139.298 128.556 140.516 127.199 141.762 124.965C143.03 122.712 143.965 121.314 144.569 120.772C145.193 120.229 145.837 119.957 146.5 119.957C147.848 119.957 148.612 120.731 148.793 122.28C148.813 122.361 148.823 122.582 148.823 122.944C148.823 123.306 148.401 124.07 147.555 125.237C146.711 126.384 145.906 127.853 145.141 129.642C144.378 131.412 143.854 132.932 143.573 134.198C143.07 136.411 142.205 137.517 140.978 137.517C140.274 137.517 139.68 137.256 139.198 136.733C138.735 136.211 138.504 135.526 138.504 134.681C138.504 134.581 138.504 134.48 138.504 134.38C138.504 134.279 138.514 134.179 138.535 134.077ZM160.994 110.694C160.994 116.024 162.604 120.45 165.822 123.97C169.041 127.47 173.315 129.22 178.646 129.22C183.976 129.22 188.331 127.55 191.71 124.211C195.09 120.852 196.779 116.256 196.779 110.422C196.779 104.588 195.1 100.052 191.74 96.8138C188.402 93.555 184.126 91.9257 178.916 91.9257C173.707 91.9257 169.413 93.726 166.033 97.3267C162.673 100.907 160.994 105.363 160.994 110.694ZM161.778 127.651C159.766 125.579 158.209 123.125 157.101 120.289C156.015 117.452 155.473 114.606 155.473 111.75C155.473 106.64 156.539 102.245 158.671 98.5638C160.803 94.8625 163.68 91.9961 167.3 89.9645C170.941 87.9126 174.903 86.8867 179.188 86.8867C182.266 86.8867 185.203 87.4098 187.999 88.4558C190.816 89.5018 193.29 91.0105 195.422 92.9818C197.574 94.9532 199.284 97.3569 200.551 100.193C201.819 103.03 202.452 106.228 202.452 109.788C202.452 117.01 200.29 122.894 195.965 127.439C191.66 131.985 185.957 134.259 178.857 134.259C171.776 134.259 166.084 132.056 161.778 127.651ZM247.542 102.818C247.542 97.367 244.927 93.9373 239.697 92.5291C237.222 91.8854 233.46 91.5636 228.411 91.5636C226.682 91.5636 225.455 91.5838 224.731 91.6239V113.801H230.645C239.556 113.801 244.896 111.719 246.667 107.555C247.25 106.188 247.542 104.609 247.542 102.818ZM227.416 133.807L221.834 133.625C221.09 133.625 220.507 133.636 220.084 133.655L218.756 133.716C217.992 133.776 217.178 133.807 216.312 133.807C215.468 133.807 214.783 133.595 214.26 133.172C213.738 132.731 213.476 132.146 213.476 131.423C213.476 130.698 213.778 130.106 214.381 129.642C215.004 129.18 215.83 128.948 216.856 128.948H219.27V92.1067C217.761 92.4085 216.574 92.5594 215.709 92.5594C214.864 92.5594 214.13 92.3381 213.506 91.8956C212.883 91.4329 212.571 90.9199 212.571 90.3566C212.571 88.5664 213.606 87.5405 215.679 87.279C217.771 87.0175 220.839 86.8867 224.881 86.8867C228.944 86.8867 231.901 86.937 233.753 87.0376C243.891 87.5204 250.096 90.8697 252.37 97.0853C252.953 98.7147 253.244 100.515 253.244 102.486C253.244 106.429 252.058 109.738 249.684 112.413C247.331 115.089 243.971 116.849 239.607 117.694C241.557 120.912 243.166 123.155 244.434 124.422C246.807 126.796 249.12 128.214 251.373 128.677C253.626 129.14 254.924 129.853 255.266 130.819C255.367 131.141 255.417 131.563 255.417 132.087C255.417 132.61 255.156 133.103 254.633 133.565C254.109 134.027 253.365 134.259 252.399 134.259C250.267 134.259 248.387 133.776 246.757 132.811C243.841 131.08 241.487 129.17 239.697 127.078C237.906 124.986 236.085 122.049 234.236 118.267H224.731V128.948H226.843C228.25 128.948 229.237 129.199 229.8 129.703C230.363 130.186 230.645 130.679 230.645 131.181C230.645 132.932 229.569 133.807 227.416 133.807ZM272.385 133.625L266.652 133.807C265.747 133.807 265.033 133.595 264.51 133.172C263.987 132.731 263.726 132.146 263.726 131.423C263.726 130.698 264.027 130.106 264.631 129.642C265.254 129.18 266.079 128.948 267.105 128.948H269.67V91.7447H267.105C266.079 91.7447 265.254 91.5234 264.631 91.0808C264.027 90.6383 263.726 90.055 263.726 89.3308C263.726 88.6067 263.987 88.0232 264.51 87.5807C265.033 87.1181 265.747 86.8867 266.652 86.8867L272.385 87.098L277.666 86.8867C279.315 86.8867 280.331 87.3795 280.713 88.3653C280.834 88.6468 280.894 88.9386 280.894 89.2403C280.894 90.9098 279.626 91.7447 277.093 91.7447H275.281V128.948H277.093C278.5 128.948 279.486 129.199 280.049 129.703C280.613 130.186 280.894 130.679 280.894 131.181C280.894 132.932 279.818 133.807 277.666 133.807L272.385 133.625ZM327.884 122.432C329.313 122.432 330.027 123.165 330.027 124.634C330.027 125.337 329.746 126.052 329.182 126.776C327.815 128.566 326.778 130.528 326.074 132.66L325.712 133.807C325.47 134.691 325.29 135.446 325.169 136.069C325.069 136.713 324.797 137.195 324.354 137.517C323.932 137.839 323.42 138 322.816 138C322.233 138 321.7 137.728 321.217 137.186C320.753 136.643 320.523 136.16 320.523 135.738V134.892C320.523 134.792 320.532 134.691 320.553 134.591C318.118 134.169 315.453 133.958 312.557 133.958C309.499 133.857 306.884 133.807 304.711 133.807C302.539 133.807 300.517 133.887 298.646 134.048C296.796 134.209 295.499 134.29 294.755 134.29C292.984 134.29 292.099 133.464 292.099 131.815C292.099 130.668 293.045 129.884 294.936 129.462C295.58 129.32 296.353 129.25 297.259 129.25H299.764V91.9558H298.586C294.744 91.9558 292.823 91.0306 292.823 89.18C292.823 87.6512 294.222 86.8867 297.018 86.8867L310.535 87.3092C314.156 87.3092 317.213 87.0879 319.708 86.6453C319.608 86.3235 319.557 85.9815 319.557 85.6195C319.557 85.2373 319.748 84.8651 320.13 84.5031C320.513 84.1209 321.065 83.9298 321.79 83.9298C323.6 83.9298 325.642 87.0376 327.915 93.2533C328.337 94.4201 328.549 95.3051 328.549 95.9085C328.549 97.2966 327.925 97.9905 326.678 97.9905C325.571 97.9905 324.646 96.9144 323.902 94.762C323.439 93.4344 322.695 92.509 321.669 91.9861C320.663 91.4429 319.376 91.1714 317.807 91.1714H317.052C316.007 91.1714 314.78 91.2317 313.372 91.3524C311.963 91.4731 310.847 91.5636 310.022 91.6239L307.518 91.805C306.693 91.8653 305.979 91.9157 305.376 91.9558V105.232C310.203 105.232 312.96 105.172 313.643 105.051C314.327 104.91 314.83 104.709 315.152 104.448C315.474 104.166 315.695 103.643 315.815 102.879C315.957 102.094 316.278 101.521 316.781 101.159C317.284 100.777 317.796 100.586 318.32 100.586C318.843 100.586 319.295 100.746 319.677 101.068C320.08 101.37 320.281 101.802 320.281 102.366C320.281 102.909 320.099 103.663 319.738 104.629C319.376 105.594 319.194 106.56 319.194 107.525C319.194 108.471 319.376 109.416 319.738 110.362L320.523 112.534C320.724 113.037 320.824 113.6 320.824 114.224C320.824 114.827 320.592 115.31 320.13 115.672C319.687 116.034 319.134 116.215 318.471 116.215C317.163 116.215 316.348 115.37 316.026 113.681C315.725 111.991 315.382 110.905 315 110.422C314.619 109.919 313.934 109.668 312.949 109.668H305.376V129.25C306.241 129.27 307.106 129.301 307.971 129.341L310.655 129.462C311.198 129.502 311.823 129.531 312.527 129.552C313.25 129.571 314.095 129.602 315.061 129.642C316.047 129.682 317.203 129.703 318.531 129.703C319.859 129.703 320.854 129.481 321.518 129.038C322.182 128.597 323.006 127.64 323.993 126.173C324.977 124.684 325.723 123.688 326.225 123.186C326.728 122.683 327.282 122.432 327.884 122.432ZM360.181 86.4643C360.141 86.243 360.121 85.9312 360.121 85.5289C360.121 85.1065 360.342 84.7042 360.785 84.322C361.247 83.9399 361.75 83.7487 362.292 83.7487C362.836 83.7487 363.389 84.0103 363.953 84.5332C364.516 85.0563 365.159 86.0821 365.884 87.6109C366.628 89.1196 367.423 90.407 368.267 91.4731L369.987 93.6154C370.873 94.7218 371.314 95.6773 371.314 96.4819C371.314 98.1514 370.57 98.9863 369.082 98.9863C367.895 98.9863 366.708 98.0308 365.521 96.1198C364.334 94.2088 363.329 92.9416 362.505 92.318C361.7 91.6944 360.764 91.3826 359.698 91.3826C353.12 91.3826 348.927 93.2533 347.115 96.9948C346.854 97.4977 346.724 98.071 346.724 98.7147C346.724 100.203 347.357 101.36 348.624 102.185C349.892 103.009 352.185 103.583 355.504 103.905C362.022 104.528 366.718 105.977 369.595 108.25C372.532 110.603 374 113.892 374 118.116C374 121.174 373.126 123.949 371.375 126.444C369.645 128.938 367.493 130.819 364.919 132.087C361.962 133.535 358.38 134.259 354.177 134.259C353.05 134.259 351.964 134.188 350.918 134.048C350.536 135.013 350.123 135.707 349.681 136.129C349.258 136.552 348.716 136.763 348.051 136.763C346.361 136.763 345.437 135.958 345.276 134.349C345.134 132.74 344.4 130.97 343.073 129.038L339.211 123.669C338.003 121.958 337.309 120.822 337.129 120.258C336.968 119.696 336.887 119.163 336.887 118.659C336.887 118.137 337.069 117.654 337.43 117.211C337.792 116.768 338.315 116.547 339 116.547C339.704 116.547 340.357 116.779 340.96 117.241C341.585 117.684 342.279 118.578 343.042 119.926C344.873 123.165 346.472 125.387 347.84 126.595C349.811 128.345 352.919 129.22 357.163 129.22C358.612 129.22 360.1 128.948 361.629 128.405C363.158 127.842 364.426 127.107 365.431 126.202C367.503 124.292 368.539 121.807 368.539 118.75C368.539 115.692 367.333 113.399 364.919 111.87C362.524 110.321 358.643 109.296 353.272 108.793C344.944 107.948 340.78 104.82 340.78 99.4087C340.78 97.2362 341.826 95.1039 343.918 93.0119C347.518 89.4113 352.94 87.2288 360.181 86.4643Z" fill="#FFF6E0"/>
<path d="M282.753 31.4577C287.674 29.1848 297.558 20.5148 301.421 16.6526C302.56 16.6526 306.57 19.2274 305.283 20.5148C300.597 25.201 290.864 32.3456 282.753 36.6074V31.4577Z" fill="#869B08"/>
<path d="M311.457 6.35339C310.88 6.4314 310.368 6.6809 309.571 7.27027C308.411 8.12472 306.645 10.6408 304.182 13.5566C304.092 13.6627 303.874 13.9153 303.699 14.1179C303.524 14.3207 302.798 15.2541 302.708 15.36C302.998 15.0232 302.618 15.4692 302.708 15.36C302.418 15.7 301.497 16.557 301.421 16.6474C301.161 16.9563 300.946 17.1041 300.777 17.2911C300.651 17.4309 300.27 17.7789 300.133 17.9348L299.49 18.5533V20.6427C299.49 21.9494 299.496 23.0159 299.501 23.0159C299.553 23.0159 300.35 23.1438 300.482 23.175C300.585 23.1968 300.814 23.2062 301.101 23.1968C301.602 23.1781 301.813 23.1282 302.312 22.9006C302.655 22.7416 303.438 22.2457 303.537 22.1209C303.558 22.0959 303.652 22.0211 303.746 21.9556C303.838 21.8901 303.932 21.8122 303.957 21.781C303.981 21.753 304.089 21.6531 304.198 21.5658C304.307 21.4754 304.696 21.0949 305.059 20.7175C305.686 20.072 305.924 19.81 306.476 19.1801C306.604 19.0335 307.111 18.6959 307.214 18.5837C307.081 18.7427 307.317 18.4714 307.214 18.5837C307.347 18.4247 307.734 18.0803 307.858 17.94C308.228 17.5221 308.45 17.3711 308.501 17.2963C308.526 17.2557 309.024 16.7867 309.145 16.6526C309.435 16.3251 309.514 16.3119 309.789 15.9813C310.045 15.6732 310.333 15.4437 310.432 15.3376C310.535 15.2348 311.025 14.7995 311.076 14.7215C311.016 14.7745 311.13 14.6435 311.076 14.7215C310.998 14.8182 311.134 14.6653 311.076 14.7215C311.213 14.5468 311.72 13.4341 311.72 13.4341C311.85 13.2874 312.227 12.9432 312.363 12.7904C312.949 12.1261 313.007 12.1467 312.752 12.1321C312.77 12.1508 312.784 12.2381 312.782 12.3286C312.739 14.3994 312.737 15.101 312.766 15.5283C312.854 16.7664 313.211 17.8079 313.794 18.5533C313.917 18.7092 314.874 19.6416 315.936 20.6427C316.344 21.0262 316.847 21.5066 317.056 21.7061C317.265 21.9058 317.606 22.2301 317.813 22.4265C318.535 23.1001 319.395 23.9141 319.618 24.1323C319.977 24.4816 320.43 24.728 320.949 24.8528C321.465 24.9744 321.725 24.9962 322.549 24.9931C323.288 24.99 323.602 24.9713 324.361 24.8871C324.516 24.8683 324.783 24.8403 324.949 24.8247C325.115 24.8091 325.387 24.7748 325.553 24.7499C325.719 24.7249 325.957 24.6875 326.081 24.6688C326.204 24.6501 326.395 24.6221 326.503 24.6033C326.612 24.5877 326.823 24.5535 326.972 24.5285C327.252 24.4785 327.414 24.4536 328.012 24.3694C328.202 24.3445 328.456 24.3007 328.57 24.279C328.689 24.254 328.836 24.229 328.903 24.2198C329.264 24.1729 329.745 24.0981 329.929 24.0575C330.047 24.0326 330.243 23.9983 330.366 23.9827C330.659 23.9422 331.027 23.8798 331.423 23.7987C331.598 23.7613 331.958 23.6989 332.223 23.6552C332.488 23.6116 332.793 23.5616 332.901 23.543C333.011 23.5243 333.258 23.4838 333.454 23.4494C333.648 23.4182 333.967 23.3621 334.163 23.3309C334.356 23.2966 334.713 23.2404 334.955 23.2031C335.195 23.1656 335.48 23.1157 335.588 23.0908C335.696 23.069 335.909 23.0347 336.055 23.0159C336.207 23.0003 336.382 22.9723 336.448 22.9536C336.515 22.938 336.623 22.9224 336.69 22.9224C336.756 22.9224 336.899 22.9006 337.007 22.8756C337.115 22.8506 337.369 22.807 337.574 22.782C337.912 22.7384 338.008 22.7447 338.069 22.807C338.073 22.8101 338.084 23.2124 338.093 23.702C338.102 24.1917 338.111 22.5482 338.111 20.0534C338.111 17.5584 338.105 15.7184 338.093 15.9679C338.084 16.2299 338.06 16.4483 338.039 16.4888C337.994 16.5761 337.806 16.6416 337.49 16.6853C337.251 16.7164 335.564 17.0034 334.984 17.1062C334.529 17.1904 333.62 17.3433 333.309 17.39C333.143 17.415 332.986 17.4399 332.962 17.4493C332.939 17.4555 332.829 17.4774 332.721 17.493C332.612 17.5086 332.077 17.5989 331.529 17.6956C330.982 17.7892 330.059 17.9451 329.476 18.0418C328.896 18.1385 328.29 18.2446 328.133 18.2757C327.976 18.3069 327.569 18.3786 327.228 18.4316C326.887 18.4847 326.243 18.5907 325.794 18.6655C325.347 18.7403 324.831 18.8245 324.646 18.8526C324.466 18.8807 324.206 18.9243 324.074 18.9462C323.941 18.9712 323.739 19.0054 323.62 19.021C323.506 19.0367 323.234 19.0803 323.017 19.1177C322.803 19.1551 322.504 19.2019 322.352 19.2268C322.206 19.2487 321.946 19.2893 321.779 19.3173C320.041 19.5886 318.918 19.7289 318.821 19.6853C318.679 19.6198 318.67 19.5419 318.713 18.8901C318.734 18.5595 318.764 18.1166 318.776 17.9015C318.789 17.6863 318.807 17.4898 318.818 17.4649C318.843 17.4025 318.897 16.7601 318.985 15.5314C319.003 15.3005 319.027 14.942 319.045 14.7361C319.07 14.418 319.063 12.8493 319.036 12.2413C319.021 11.9606 318.96 11.4834 318.912 11.3057C318.888 11.2183 318.858 11.0718 318.839 10.9782C318.798 10.7443 318.688 10.4231 318.531 10.0894C318.426 9.8618 318.356 9.76203 318.158 9.55617C317.958 9.35032 317.877 9.28801 317.689 9.20999C317.566 9.15386 317.104 8.92934 316.663 8.70791C316.223 8.48647 315.707 8.2308 315.516 8.14029C314.973 7.88462 313.485 7.14243 312.766 6.76818C312.407 6.581 312.061 6.41569 311.998 6.40012C311.85 6.35956 311.574 6.33781 311.457 6.35339Z" fill="#869B08"/>
</g>
<defs>
<filter id="filter0_d_8_27" x="0" y="0" width="378" height="146" filterUnits="userSpaceOnUse" color-interpolation-filters="sRGB">
<feFlood flood-opacity="0" result="BackgroundImageFix"/>
<feColorMatrix in="SourceAlpha" type="matrix" values="0 0 0 0 0 0 0 0 0 0 0 0 0 0 0 0 0 0 127 0" result="hardAlpha"/>
<feOffset dy="4"/>
<feGaussianBlur stdDeviation="2"/>
<feComposite in2="hardAlpha" operator="out"/>
<feColorMatrix type="matrix" values="0 0 0 0 0 0 0 0 0 0 0 0 0 0 0 0 0 0 0.25 0"/>
<feBlend mode="normal" in2="BackgroundImageFix" result="effect1_dropShadow_8_27"/>
<feBlend mode="normal" in="SourceGraphic" in2="effect1_dropShadow_8_27" result="shape"/>
</filter>
</defs>
</svg>
