<svg width="65" height="65" viewBox="0 0 65 65" fill="none" xmlns="http://www.w3.org/2000/svg">
<path d="M50.2104 16.8518L40.0894 26.9728M38.2492 16.8518H50.2104V28.813M29.5083 51.8154C31.3811 51.8154 33.2356 51.4465 34.9659 50.7298C36.6962 50.0131 38.2684 48.9626 39.5927 47.6383C40.917 46.314 41.9675 44.7418 42.6842 43.0116C43.4009 41.2813 43.7697 39.4268 43.7697 37.5539C43.7697 35.6811 43.4009 33.8266 42.6842 32.0963C41.9675 30.366 40.917 28.7939 39.5927 27.4696C38.2684 26.1453 36.6962 25.0948 34.9659 24.3781C33.2356 23.6613 31.3811 23.2925 29.5083 23.2925C25.7259 23.2925 22.0985 24.795 19.4239 27.4696C16.7494 30.1441 15.2468 33.7716 15.2468 37.5539C15.2468 41.3363 16.7494 44.9638 19.4239 47.6383C22.0985 50.3128 25.7259 51.8154 29.5083 51.8154V51.8154Z" stroke="#FFF6E0" stroke-width="4" stroke-linecap="round" stroke-linejoin="round"/>
<circle cx="32.5" cy="32.5" r="30.5" stroke="#FFF6E0" stroke-width="4"/>
</svg>
