<svg width="65" height="65" viewBox="0 0 65 65" fill="none" xmlns="http://www.w3.org/2000/svg">
<path d="M32.5 40.1234V52.1604M38.5185 46.1419H26.4815M32.5 40.1234C36.2245 40.1234 39.7964 38.6439 42.43 36.0102C45.0637 33.3766 46.5432 29.8047 46.5432 26.0802C46.5432 22.3557 45.0637 18.7838 42.43 16.1501C39.7964 13.5165 36.2245 12.037 32.5 12.037C28.7755 12.037 25.2036 13.5165 22.5699 16.1501C19.9363 18.7838 18.4568 22.3557 18.4568 26.0802C18.4568 29.8047 19.9363 33.3766 22.5699 36.0102C25.2036 38.6439 28.7755 40.1234 32.5 40.1234V40.1234Z" stroke="#FFF6E0" stroke-width="4" stroke-linecap="round" stroke-linejoin="round"/>
<circle cx="32.5" cy="32.5" r="30.5" stroke="#FFF6E0" stroke-width="4"/>
</svg>
